<?xml version="1.0" encoding="utf-8"?>
<!-- Generator: Adobe Illustrator 15.0.2, SVG Export Plug-In . SVG Version: 6.00 Build 0)  -->
<!DOCTYPE svg PUBLIC "-//W3C//DTD SVG 1.1//EN" "http://www.w3.org/Graphics/SVG/1.1/DTD/svg11.dtd">
<svg version="1.1" xmlns="http://www.w3.org/2000/svg" xmlns:xlink="http://www.w3.org/1999/xlink" x="0px" y="0px" width="18px"
	 height="21px" viewBox="0 0 18 21" enable-background="new 0 0 18 21" xml:space="preserve">
<g id="Logo">
	<path fill="#FFFFFF" d="M9,0L0,5.25v10.5L9,21l9-5.25V5.25L9,0z M9,3.541c1.456,0,2.657,1.146,2.838,2.629
		c-0.414-0.034-1.625-0.123-2.799-0.124C7.912,6.048,6.661,6.151,6.158,6.196C6.329,4.7,7.535,3.541,9,3.541z M10.776,10.085
		l-0.423,7.374l-1.355-0.694l-1.351,0.692l-0.423-7.372h0l-0.216-0.86l3.983,0.001L10.776,10.085L10.776,10.085z M10.983,8.737
		H7.015C6.504,8.219,6.178,7.503,6.142,6.706C6.59,6.664,7.884,6.554,9.039,6.553c1.225,0,2.49,0.099,2.82,0.127
		C11.829,7.488,11.5,8.213,10.983,8.737z"/>
</g>
<g id="Hilflinien" display="none">
</g>
</svg>
